<?xml version="1.0" standalone="no"?>
<!DOCTYPE svg PUBLIC "-//W3C//DTD SVG 20010904//EN"
 "http://www.w3.org/TR/2001/REC-SVG-20010904/DTD/svg10.dtd">
<svg version="1.0" xmlns="http://www.w3.org/2000/svg"
 width="2400.000000pt" height="2400.000000pt" viewBox="0 0 2400.000000 2400.000000"
 preserveAspectRatio="xMidYMid meet">

<g transform="translate(0.000000,2400.000000) scale(0.100000,-0.100000)"
fill="#000000" stroke="none">
<path d="M2500 22739 c-319 -41 -600 -179 -830 -409 -202 -201 -329 -435 -392
-723 l-23 -102 0 -9505 0 -9505 23 -102 c63 -288 190 -522 392 -723 201 -202
435 -329 723 -392 l102 -23 9505 0 9505 0 102 23 c289 64 521 189 723 392 205
204 337 454 397 747 17 84 18 507 18 9583 0 9076 -1 9499 -18 9583 -60 293
-192 543 -397 747 -200 201 -428 325 -718 392 l-97 23 -9475 1 c-5211 1 -9504
-2 -9540 -7z m18899 -1257 c19 -9 48 -34 65 -55 l31 -39 0 -9388 0 -9388 -31
-39 c-17 -21 -46 -46 -65 -55 -32 -17 -503 -18 -9397 -18 -7928 0 -9368 2
-9395 14 -39 16 -82 61 -96 99 -15 40 -15 18734 0 18774 14 37 57 82 94 99 25
11 1593 13 9395 14 8897 0 9367 -1 9399 -18z"/>
<path d="M15830 18810 c-786 -49 -1498 -229 -2120 -536 -421 -207 -721 -422
-1045 -748 -308 -309 -513 -590 -691 -946 -211 -423 -335 -878 -391 -1432 -24
-240 -24 -771 0 -988 66 -595 207 -1010 478 -1415 260 -388 587 -704 955 -925
244 -146 638 -330 1026 -479 284 -109 439 -161 1211 -406 730 -232 936 -302
1177 -402 598 -248 898 -516 997 -889 23 -87 26 -118 26 -264 1 -95 -5 -192
-12 -230 -47 -239 -157 -445 -332 -620 -208 -208 -469 -319 -874 -371 -129
-17 -594 -17 -785 0 -198 17 -398 46 -554 82 -190 42 -675 205 -1211 404 -403
150 -565 200 -780 241 -143 26 -383 15 -538 -25 -227 -58 -428 -177 -582 -344
-276 -299 -424 -668 -442 -1103 -14 -341 72 -612 281 -878 332 -422 1058 -832
1877 -1060 1178 -327 2516 -385 3624 -155 1154 238 2139 815 2727 1596 444
590 692 1311 758 2198 14 179 13 691 0 860 -58 738 -229 1288 -542 1747 -298
437 -898 905 -1603 1253 -419 206 -640 288 -1870 695 -826 274 -1167 406
-1434 557 -259 147 -363 260 -417 454 -25 89 -26 354 -1 453 104 413 450 705
959 808 103 21 140 23 403 23 307 -1 406 -10 679 -60 194 -36 385 -87 601
-162 451 -155 672 -218 900 -259 138 -24 370 -29 490 -10 321 49 562 183 767
426 213 253 318 531 335 885 30 636 -314 1147 -1027 1528 -487 260 -1124 418
-1940 482 -229 18 -886 27 -1080 15z"/>
<path d="M8810 18625 c-342 -49 -604 -177 -815 -397 -192 -198 -297 -423 -363
-773 -15 -83 -17 -392 -23 -3960 -4 -2756 -9 -3907 -17 -4000 -49 -555 -131
-883 -275 -1095 -51 -75 -148 -170 -224 -220 -92 -61 -176 -94 -305 -121 -146
-30 -379 -24 -518 14 -134 36 -245 85 -406 179 -453 264 -665 381 -747 412
-146 57 -258 77 -424 77 -436 -1 -758 -148 -999 -457 -157 -201 -251 -416
-296 -679 -18 -105 -20 -148 -15 -350 7 -298 37 -461 121 -656 91 -209 288
-432 576 -653 278 -213 558 -360 930 -487 645 -221 1301 -309 2010 -269 863
49 1477 226 2025 585 314 205 576 462 773 758 401 601 597 1211 691 2157 41
408 42 526 39 4665 -5 4377 1 4014 -63 4264 -136 536 -525 895 -1080 997 -123
23 -466 28 -595 9z"/>
</g>
</svg>
